<?xml version="1.0"?><svg fill="#fff" xmlns="http://www.w3.org/2000/svg"  viewBox="0 0 24 24" width="48px" height="48px">    <path d="M 4 4 C 2.895 4 2 4.895 2 6 L 2 18 C 2 19.105 2.895 20 4 20 L 20 20 C 21.105 20 22 19.105 22 18 L 22 6 C 22 4.895 21.105 4 20 4 L 4 4 z M 4.6875 10 L 5.9257812 10 L 7.5 13.800781 L 7.5 10 L 9.0742188 10 L 10.199219 12.699219 L 11.324219 10 L 12.787109 10 L 12.787109 14 L 11.886719 14 L 11.886719 11.099609 L 10.650391 14 L 9.75 14 L 8.5136719 11 L 8.5136719 14 L 6.5996094 14 L 6.2636719 13.099609 L 4.3496094 13.099609 L 4.0136719 14 L 3 14 L 4.6875 10 z M 14.025391 10 L 17.736328 10 L 18.636719 11.199219 L 19.761719 10 L 21 10 L 19.3125 12 L 21 14 L 19.875 14 L 18.75 12.699219 L 17.625 14 L 14.025391 14 L 14.025391 10 z M 5.25 10.800781 L 4.6875 12.199219 L 5.8125 12.199219 L 5.25 10.800781 z M 14.925781 10.900391 L 14.925781 11.599609 L 16.949219 11.599609 L 16.949219 12.400391 L 14.925781 12.400391 L 14.925781 13.199219 L 17.0625 13.199219 L 18.074219 12 L 17.175781 10.900391 L 14.925781 10.900391 z"/></svg>
