<svg fill="#fff" xmlns="http://www.w3.org/2000/svg"  viewBox="0 0 24 24" width="48px" height="48px"><path d="M 4 4 C 2.898438 4 2 4.898438 2 6 L 2 18 C 2 19.101563 2.898438 20 4 20 L 20 20 C 21.101563 20 22 19.101563 22 18 L 22 6 C 22 4.898438 21.101563 4 20 4 Z M 4 6 L 20 6 L 20 18 L 4 18 L 4 13 L 4.730469 13 C 5.847656 13 6.109375 11.96875 6.109375 11.5 C 6.109375 10.617188 5.546875 10 4.734375 10 L 4 10 Z M 20 13 L 19.191406 11.734375 C 19.570313 11.648438 19.777344 11.347656 19.777344 10.886719 C 19.777344 10.324219 19.445313 10 18.871094 10 L 18.125 10 L 18.125 13 L 18.625 13 L 18.625 11.796875 L 18.691406 11.796875 L 19.386719 13 Z M 6.34375 10 L 6.34375 13 L 6.84375 13 L 6.84375 10 Z M 7.960938 10 C 7.507813 10 7.164063 10.355469 7.164063 10.828125 C 7.164063 11.222656 7.328125 11.417969 7.796875 11.617188 C 8.066406 11.730469 8.289063 11.800781 8.289063 12.078125 C 8.289063 12.3125 8.125 12.484375 7.898438 12.484375 C 7.660156 12.484375 7.46875 12.351563 7.355469 12.101563 L 7.03125 12.453125 C 7.261719 12.832031 7.539063 13 7.921875 13 C 8.441406 13 8.804688 12.609375 8.804688 12.050781 C 8.804688 11.59375 8.636719 11.386719 8.066406 11.15625 C 7.765625 11.03125 7.679688 10.945313 7.679688 10.792969 C 7.679688 10.609375 7.835938 10.46875 8.050781 10.46875 C 8.199219 10.46875 8.324219 10.539063 8.453125 10.703125 L 8.71875 10.316406 C 8.5 10.105469 8.242188 10 7.960938 10 Z M 12.4375 10 C 11.695313 10 11.097656 10.671875 11.097656 11.5 C 11.097656 12.328125 11.695313 13 12.4375 13 C 13.175781 13 13.773438 12.328125 13.773438 11.5 C 13.773438 10.671875 13.175781 10 12.4375 10 Z M 13.683594 10 L 14.769531 13 L 15.042969 13 L 16.148438 10 L 15.609375 10 L 14.910156 11.964844 L 14.230469 10 Z M 16.375 10 L 16.375 13 L 17.796875 13 L 17.796875 12.492188 L 16.875 12.492188 L 16.875 11.683594 L 17.761719 11.683594 L 17.761719 11.171875 L 16.875 11.171875 L 16.875 10.507813 L 17.796875 10.507813 L 17.796875 10 Z M 10.328125 10.007813 C 9.570313 10.007813 8.960938 10.675781 8.960938 11.507813 C 8.960938 12.347656 9.554688 13 10.316406 13 C 10.53125 13 10.71875 12.953125 10.945313 12.832031 L 10.945313 12.175781 C 10.746094 12.398438 10.570313 12.488281 10.34375 12.488281 C 9.835938 12.488281 9.476563 12.082031 9.476563 11.5 C 9.476563 10.953125 9.847656 10.519531 10.316406 10.519531 C 10.558594 10.519531 10.734375 10.613281 10.945313 10.84375 L 10.945313 10.183594 C 10.726563 10.058594 10.546875 10.007813 10.328125 10.007813 Z M 18.625 10.472656 L 18.78125 10.472656 C 19.09375 10.472656 19.261719 10.625 19.261719 10.917969 C 19.261719 11.21875 19.09375 11.378906 18.773438 11.378906 L 18.625 11.378906 Z M 4.5 10.507813 L 4.664063 10.507813 C 5.347656 10.507813 5.59375 11.023438 5.59375 11.496094 C 5.597656 11.722656 5.535156 12.492188 4.632813 12.492188 L 4.5 12.492188 Z"/></svg>
