<?xml version="1.0"?><svg fill="#fff" xmlns="http://www.w3.org/2000/svg"  viewBox="0 0 24 24" width="48px" height="48px">    <path d="M 8 5 C 4.14 5 1 8.14 1 12 C 1 15.86 4.14 19 8 19 C 9.488549 19 10.866337 18.529513 12.001953 17.734375 C 13.137361 18.529291 14.514686 19 16 19 C 19.854149 19 23 15.854149 23 12 C 23 8.1458514 19.854149 5 16 5 C 14.514686 5 13.137361 5.470709 12.001953 6.265625 C 10.866337 5.4704866 9.488549 5 8 5 z M 16 7 C 18.773268 7 21 9.2267316 21 12 C 21 14.773268 18.773268 17 16 17 C 15.083516 17 14.238422 16.738227 13.501953 16.3125 C 14.437153 15.122327 15 13.627667 15 12 C 15 10.372333 14.437153 8.8776731 13.501953 7.6875 C 14.238422 7.2617729 15.083516 7 16 7 z"/></svg>
