<?xml version="1.0"?>
<svg fill="#fff" xmlns="http://www.w3.org/2000/svg"  viewBox="0 0 24 24" width="48px" height="48px">
    <path d="M 4 4 C 2.895 4 2 4.895 2 6 L 2 18 C 2 19.105 2.895 20 4 20 L 20 20 C 21.105 20 22 19.105 22 18 L 22 6 C 22 4.895 21.105 4 20 4 L 4 4 z M 14.388672 9 C 15.008672 9 15.732422 9.3105469 15.732422 9.3105469 L 15.421875 10.550781 C 15.421875 10.550781 14.904672 10.136719 14.388672 10.136719 C 13.665672 10.136719 13.458984 10.447812 13.458984 10.757812 C 13.458984 11.480813 15.525391 11.582297 15.525391 13.029297 C 15.524391 14.267297 14.078437 15.094234 13.148438 14.990234 C 12.115438 14.990234 11.599609 14.681641 11.599609 14.681641 L 11.806641 13.441406 C 11.806641 13.441406 12.425953 13.751953 13.251953 13.751953 C 14.077953 13.751953 14.181641 13.440375 14.181641 13.234375 C 14.181641 12.304375 12.115234 12.614859 12.115234 10.755859 C 12.115234 9.8258594 12.838672 9 14.388672 9 z M 7.8808594 9.1035156 L 9.3261719 9.1035156 L 7.15625 14.888672 L 5.6074219 14.888672 L 4.4707031 10.240234 C 4.4707031 10.240234 5.7105938 10.96275 6.4335938 12.71875 C 6.4335938 12.92575 6.5371094 13.236328 6.5371094 13.236328 L 7.8808594 9.1035156 z M 17.900391 9.1035156 L 19.449219 9.1035156 L 20.585938 14.888672 L 19.345703 14.888672 L 19.138672 14.0625 L 17.279297 14.0625 L 16.970703 14.888672 L 15.523438 14.888672 L 17.900391 9.1035156 z M 9.9453125 9.2050781 L 11.494141 9.2050781 L 10.564453 14.990234 L 9.1191406 14.990234 L 9.9453125 9.2050781 z M 2.7148438 9.2070312 L 4.9882812 9.2070312 C 5.6082813 9.2070312 5.8144531 9.7226562 5.8144531 9.7226562 L 6.3300781 12.304688 C 5.7100781 10.135687 2.7148438 9.2070312 2.7148438 9.2070312 z M 18.416016 10.859375 L 17.589844 13.029297 L 18.828125 13.029297 L 18.416016 10.859375 z"/>
    </svg>
